# xmcd CD database file
#
# Track frame offsets:
#	150
#	19123
#	36582
#	53119
#	68036
#	83088
#	102225
#	119262
#	137148
#	152796
#	172374
#	189103
#	205994
#	223554
#	244684
#	258297
#	273818
#	290059
#	307920
#	327288
#	342833
#
# Disc length: 4727 seconds
#
# Revision: 0
# Processed by: cddbd v1.5.2PL0 Copyright (c) Steve Scherf et al.
# Submitted via: CDex 2.09
#
DISCID=35127515
DTITLE=Various Artist - The Best Of Australian Country - CD 1
DYEAR=2010
DGENRE=Country
TTITLE0=Lee Kernigan - The Way It Is
TTITLE1=Sara Storer - Land Cries Out
TTITLE2=Adam Brand - Good Friends
TTITLE3=Kasey Chambers - Not Pretty Enough
TTITLE4=The McClymonts - My Life Again
TTITLE5=Davidson Brothers - Long Distance Love Affair
TTITLE6=Catherine Britt - Too Far Gone
TTITLE7=Carter and Carter - Candlelight And Kisses
TTITLE8=Jetty Road - Million Miles
TTITLE9=Melinda Schneider - The Story Of My Life
TTITLE10=Amos Morris - Home
TTITLE11=Lou Bradley - One Shoe
TTITLE12=The Wolverines - 65 Roses
TTITLE13=Felicity Urquhart - Big Black Cloud
TTITLE14=Shea Fisher - Everyday Girl
TTITLE15=Travis Collins - Rip It Up
TTITLE16=Dianna Corcoran - Then There's Me
TTITLE17=Warren H Williams - Family
TTITLE18=Regum - I Was Only 19 (A Walk In The Light Green)
TTITLE19=Harmony James - Precious Little
TTITLE20=Slim Dusty - Things I See Around Me
EXTD=YEAR: 2010
EXTT0=
EXTT1=
EXTT2=
EXTT3=
EXTT4=
EXTT5=
EXTT6=
EXTT7=
EXTT8=
EXTT9=
EXTT10=
EXTT11=
EXTT12=
EXTT13=
EXTT14=
EXTT15=
EXTT16=
EXTT17=
EXTT18=
EXTT19=
EXTT20=
PLAYORDER=
